<svg width="183" height="46" viewBox="0 0 183 46" fill="none" xmlns="http://www.w3.org/2000/svg">
<path d="M59.1354 33L54.9504 14.1H58.9734L61.5384 26.898L65.2104 14.1H68.9094L72.5814 26.871L75.1464 14.1H79.0344L74.8764 33H70.7454L67.0194 19.824L63.2394 33H59.1354ZM86.8486 33.27C85.4446 33.27 84.1756 32.946 83.0416 32.298C81.9076 31.65 81.0076 30.777 80.3416 29.679C79.6756 28.581 79.3426 27.348 79.3426 25.98C79.3426 24.612 79.6666 23.379 80.3146 22.281C80.9806 21.165 81.8806 20.283 83.0146 19.635C84.1666 18.987 85.4446 18.663 86.8486 18.663C88.2526 18.663 89.5216 18.987 90.6556 19.635C91.8076 20.283 92.7076 21.165 93.3556 22.281C94.0216 23.379 94.3546 24.612 94.3546 25.98C94.3546 27.348 94.0216 28.581 93.3556 29.679C92.7076 30.777 91.8166 31.65 90.6826 32.298C89.5486 32.946 88.2706 33.27 86.8486 33.27ZM86.8486 30.057C87.5866 30.057 88.2436 29.877 88.8196 29.517C89.4136 29.157 89.8816 28.671 90.2236 28.059C90.5836 27.429 90.7636 26.736 90.7636 25.98C90.7636 25.206 90.5836 24.513 90.2236 23.901C89.8816 23.289 89.4136 22.803 88.8196 22.443C88.2436 22.065 87.5866 21.876 86.8486 21.876C86.1286 21.876 85.4716 22.065 84.8776 22.443C84.2836 22.803 83.8156 23.289 83.4736 23.901C83.1316 24.513 82.9606 25.206 82.9606 25.98C82.9606 26.736 83.1316 27.429 83.4736 28.059C83.8156 28.671 84.2836 29.157 84.8776 29.517C85.4716 29.877 86.1286 30.057 86.8486 30.057ZM96.6283 33V18.933H100.327V20.499C100.777 19.887 101.317 19.419 101.947 19.095C102.577 18.771 103.288 18.609 104.08 18.609C104.764 18.627 105.277 18.735 105.619 18.933V22.173C105.349 22.047 105.052 21.957 104.728 21.903C104.404 21.831 104.071 21.795 103.729 21.795C103.009 21.795 102.352 21.975 101.758 22.335C101.164 22.695 100.687 23.208 100.327 23.874V33H96.6283ZM113.603 33.189C112.271 33.189 111.065 32.865 109.985 32.217C108.905 31.569 108.041 30.705 107.393 29.625C106.763 28.527 106.448 27.303 106.448 25.953C106.448 24.603 106.763 23.388 107.393 22.308C108.041 21.21 108.914 20.346 110.012 19.716C111.11 19.068 112.343 18.744 113.711 18.744C114.413 18.744 115.088 18.843 115.736 19.041C116.384 19.221 116.987 19.491 117.545 19.851V14.1L121.244 13.479V33H117.599V31.839C116.447 32.739 115.115 33.189 113.603 33.189ZM114.197 30.03C114.881 30.03 115.502 29.922 116.06 29.706C116.636 29.472 117.131 29.13 117.545 28.68V23.199C117.131 22.785 116.636 22.461 116.06 22.227C115.484 21.993 114.863 21.876 114.197 21.876C113.423 21.876 112.721 22.056 112.091 22.416C111.479 22.758 110.993 23.244 110.633 23.874C110.273 24.486 110.093 25.179 110.093 25.953C110.093 26.727 110.273 27.42 110.633 28.032C110.993 28.644 111.479 29.13 112.091 29.49C112.721 29.85 113.423 30.03 114.197 30.03ZM124.372 33V14.1H133.849C135.091 14.1 136.18 14.352 137.116 14.856C138.07 15.36 138.817 16.062 139.357 16.962C139.897 17.844 140.167 18.87 140.167 20.04C140.167 21.156 139.897 22.155 139.357 23.037C138.817 23.919 138.07 24.612 137.116 25.116C136.162 25.62 135.073 25.872 133.849 25.872H128.287V33H124.372ZM128.287 22.632H133.417C134.263 22.632 134.938 22.398 135.442 21.93C135.964 21.462 136.225 20.841 136.225 20.067C136.225 19.275 135.964 18.645 135.442 18.177C134.938 17.709 134.263 17.475 133.417 17.475H128.287V22.632ZM142.507 33V18.933H146.206V33H142.507ZM144.343 17.259C143.767 17.259 143.272 17.052 142.858 16.638C142.444 16.224 142.237 15.729 142.237 15.153C142.237 14.559 142.444 14.064 142.858 13.668C143.272 13.254 143.767 13.047 144.343 13.047C144.937 13.047 145.432 13.254 145.828 13.668C146.242 14.064 146.449 14.559 146.449 15.153C146.449 15.729 146.242 16.224 145.828 16.638C145.432 17.052 144.937 17.259 144.343 17.259ZM149.099 33V14.1L152.798 13.479V33H149.099ZM162.549 33.27C161.145 33.27 159.876 32.946 158.742 32.298C157.608 31.65 156.708 30.777 156.042 29.679C155.376 28.581 155.043 27.348 155.043 25.98C155.043 24.612 155.367 23.379 156.015 22.281C156.681 21.165 157.581 20.283 158.715 19.635C159.867 18.987 161.145 18.663 162.549 18.663C163.953 18.663 165.222 18.987 166.356 19.635C167.508 20.283 168.408 21.165 169.056 22.281C169.722 23.379 170.055 24.612 170.055 25.98C170.055 27.348 169.722 28.581 169.056 29.679C168.408 30.777 167.517 31.65 166.383 32.298C165.249 32.946 163.971 33.27 162.549 33.27ZM162.549 30.057C163.287 30.057 163.944 29.877 164.52 29.517C165.114 29.157 165.582 28.671 165.924 28.059C166.284 27.429 166.464 26.736 166.464 25.98C166.464 25.206 166.284 24.513 165.924 23.901C165.582 23.289 165.114 22.803 164.52 22.443C163.944 22.065 163.287 21.876 162.549 21.876C161.829 21.876 161.172 22.065 160.578 22.443C159.984 22.803 159.516 23.289 159.174 23.901C158.832 24.513 158.661 25.206 158.661 25.98C158.661 26.736 158.832 27.429 159.174 28.059C159.516 28.671 159.984 29.157 160.578 29.517C161.172 29.877 161.829 30.057 162.549 30.057ZM178.444 33.216C176.878 33.216 175.69 32.865 174.88 32.163C174.088 31.443 173.692 30.399 173.692 29.031V22.011H170.803V18.933H173.692V15.342L177.391 14.505V18.933H181.414V22.011H177.391V28.275C177.391 28.923 177.535 29.391 177.823 29.679C178.111 29.949 178.615 30.084 179.335 30.084C179.695 30.084 180.019 30.066 180.307 30.03C180.613 29.976 180.946 29.886 181.306 29.76V32.811C180.928 32.937 180.451 33.036 179.875 33.108C179.317 33.18 178.84 33.216 178.444 33.216Z" fill="white"/>
<path fill-rule="evenodd" clip-rule="evenodd" d="M34.5 0C36.8462 0 39.0525 0.598489 40.9748 1.65113L35.7031 7.11112C35.3132 7.03815 34.911 7 34.5 7H13.5C9.91015 7 7 9.91015 7 13.5V34.5C7 35.2018 7.11124 35.8777 7.31704 36.5109L2.16941 41.8424C0.797089 39.729 0 37.2076 0 34.5V13.5C0 6.04416 6.04416 0 13.5 0H34.5ZM11.9748 45.3424C9.62864 45.3424 7.42226 44.7439 5.50002 43.6913L10.7717 38.2313C11.1616 38.3042 11.5637 38.3424 11.9748 38.3424L32.9748 38.3424C36.5646 38.3424 39.4748 35.4323 39.4748 31.8424L39.4748 10.8424C39.4748 10.1406 39.3636 9.4647 39.1578 8.83148L44.3054 3.50001C45.6777 5.6134 46.4748 8.13482 46.4748 10.8424L46.4748 31.8424C46.4748 39.2983 40.4306 45.3424 32.9748 45.3424L11.9748 45.3424Z" fill="url(#paint0_linear_405_3304)"/>
<path d="M15.333 32.5L11.121 13.6H15.9L18.195 25.264L21.489 13.6H25.836L29.13 25.264L31.425 13.6H36.042L31.83 32.5H26.916L23.595 20.458L20.247 32.5H15.333Z" fill="#82AEF0"/>
<defs>
<linearGradient id="paint0_linear_405_3304" x1="4" y1="4" x2="40.5" y2="42" gradientUnits="userSpaceOnUse">
<stop stop-color="#6B74F3"/>
<stop offset="1" stop-color="#7CC8F5"/>
</linearGradient>
</defs>
</svg>
