<svg width="21" height="21" viewBox="0 0 21 21" fill="none" xmlns="http://www.w3.org/2000/svg">
<path d="M5 0V2H1C0.44772 2 0 2.44772 0 3V19C0 19.5523 0.44772 20 1 20H8.7546C7.65672 18.6304 7 16.8919 7 15C7 10.5817 10.5817 7 15 7C16.8919 7 18.6304 7.65672 20 8.75463V3C20 2.44772 19.5523 2 19 2H15V0H13V2H7V0H5ZM21 15C21 18.3137 18.3137 21 15 21C11.6863 21 9 18.3137 9 15C9 11.6863 11.6863 9 15 9C18.3137 9 21 11.6863 21 15ZM14 11V15.4142L16.2929 17.7071L17.7071 16.2929L16 14.5858V11H14Z" fill="#A3AED0"/>
</svg>
